<svg xmlns="http://www.w3.org/2000/svg" viewBox="0 0 112.196 112.196">
  <circle cx="56.098" cy="56.098" r="56.098" fill="#F26798"/>
  <path d="M56.097 20.472c-19.67 0-35.67 15.983-35.67 35.627 0 19.643 16 35.625 35.67 35.625S91.77 75.745 91.77 56.1c0-19.645-16.003-35.628-35.673-35.628zM79.57 37.287c4.07 5.043 6.542 11.412 6.656 18.352-1.354-.28-7.088-1.348-13.94-1.348-2.21 0-4.538.11-6.87.4-.198-.48-.395-.957-.602-1.44-.605-1.422-1.257-2.834-1.932-4.225 10.546-4.345 15.633-10.375 16.688-11.74zM56.097 26.05c7.6 0 14.55 2.823 19.856 7.474-.84 1.146-5.396 6.84-15.565 10.683-4.707-8.604-9.86-15.73-11.085-17.383 2.185-.506 4.46-.775 6.794-.775zm-12.945 2.92c1.04 1.43 6.2 8.63 11.027 17.166-12.958 3.406-24.464 3.628-27.24 3.628h-.296C28.64 40.57 34.85 32.93 43.152 28.97zM25.96 56.145c0-.248.004-.496.012-.743.18.002.446.002.79.002 3.74 0 16.723-.31 30.1-4.28.813 1.59 1.586 3.2 2.305 4.812-.338.097-.67.194-1.002.302-15.063 4.864-23.342 17.743-24.616 19.848-4.72-5.318-7.59-12.3-7.59-19.942zM56.097 86.24c-6.912 0-13.29-2.34-18.38-6.265.86-1.688 7.11-12.94 23.616-18.684l.033-.01c4.14 10.776 5.892 19.82 6.373 22.623-3.583 1.506-7.517 2.338-11.643 2.338zm17.07-5.304c-.404-2.32-2.028-10.795-5.776-21.133 2.103-.327 4.148-.456 6.066-.456 6.3 0 11.226 1.38 12.37 1.73-1.36 8.208-6.06 15.312-12.66 19.86z" fill="#F1F2F2"/>
</svg>
