<?xml version="1.0" encoding="iso-8859-1"?>
<!-- Generator: Adobe Illustrator 19.1.0, SVG Export Plug-In . SVG Version: 6.00 Build 0)  -->
<svg version="1.1" id="Layer_1" xmlns="http://www.w3.org/2000/svg" xmlns:xlink="http://www.w3.org/1999/xlink" x="0px" y="0px"
	 viewBox="0 0 86.135 414.644" style="enable-background:new 0 0 86.135 414.644;" xml:space="preserve">
<g>
	<path d="M73.619,291.402c-0.407-1.276-0.77-3.398-0.77-4.759c0.006-63.053,0.133-126.106,0.049-189.158
		c-0.003-2.365-1.91-4.733-2.952-7.09c-0.799-1.808-2.325-3.594-2.344-5.402c-0.18-17.109-0.056-34.221-0.169-51.331
		c-0.014-2.103-0.213-5.033-1.533-6.131c-3.074-2.559-3.708-5.791-2.795-8.853c2.91-9.755-6.42-12.492-10.048-18.456
		c-0.156-0.256-0.898-0.212-1.368-0.212C42.375-0.003,33.061,0,23.746,0c-0.942,2.551-2.258,4.303-3.952,5.533
		c-2.887,2.097-4.772,4.498-4.554,8.278c0.155,2.684,0.162,5.396-0.049,8.073c-0.082,1.035-0.702,2.565-1.497,2.914
		c-4.085,1.794-4.667,5.079-4.648,8.987C9.129,50.737,9.124,67.69,9.028,84.642c-0.009,1.531-0.601,4.198-1.409,4.4
		c-5.559,1.395-5.804,5.393-5.797,9.945c0.086,60.996,0.118,121.992,0.126,182.987c0,2.789-0.351,5.578-0.55,8.547
		c-0.475,0-0.939,0-1.398,0c0.024,3.094,0.293,6.199,1.245,9.531c0.382,1.685,0.744,3.37,1.09,5.053
		c-0.132-4.698-0.367-9.384-0.757-14.053c0.389,4.669,0.624,9.355,0.757,14.053c7.575,36.87,6.725,73.27,4.21,109.539
		c23.953,0,47.906,0,71.859,0c3.367-4.164,5.638-9.304,6.174-13.591C90.56,364.169,77.662,328.279,73.619,291.402z"/>
</g>
</svg>
