<?xml version="1.0" encoding="iso-8859-1"?>
<!-- Generator: Adobe Illustrator 19.1.0, SVG Export Plug-In . SVG Version: 6.00 Build 0)  -->
<svg version="1.1" id="Layer_1" xmlns="http://www.w3.org/2000/svg" xmlns:xlink="http://www.w3.org/1999/xlink" x="0px" y="0px"
	 viewBox="0 0 1421.028 414.644" style="enable-background:new 0 0 1421.028 414.644;" xml:space="preserve">
<path d="M1399.425,305.32c0,7.019,0,13.714,0,20.29c-4.825,0-8.997,0-13.539,0c0-4.637,0-8.871,0-13.279
	c-1.668-0.276-2.987-0.495-4.622-0.765c0-3.571,0.112-6.88-0.021-10.178c-0.367-9.061-0.837-18.117-1.261-27.05
	c-5.411,0-9.457,0-13.585,0c-0.162,2.477-0.304,4.645-0.47,7.184c-1.565-0.117-2.857-0.214-4.118-0.308
	c-0.206-1.959-0.365-3.479-0.569-5.421c-8.86,0-17.503,0-26.55,0c0-5.132,0-9.83,0-14.958c-4.406,0.804-4.808-2.024-4.804-5.79
	c-9.064,2.401-16.851-1.293-25.061-3.51c-0.207-2.723-0.419-5.519-0.631-8.316c-0.505-0.004-1.011-0.008-1.516-0.011
	c-0.271,2.932-0.543,5.863-0.814,8.791c-5.333,1.617-10.391,3.15-15.972,4.842c-0.129,0.684-0.408,2.16-0.654,3.466
	c-1.673,0.318-2.999,0.57-4.726,0.898c0,16.953,0,33.666,0,50.3c-5.581,0-10.689,0-16.224,0c0-24.902,0-49.377,0-74.044
	c-3.2-0.18-5.97-0.335-8.835-0.496c-0.231-2.402-0.42-4.376-0.611-6.359c-12.432,0-24.534,0-36.681,0
	c-0.203,2.319-0.378,4.305-0.597,6.808c-6.24,0-12.187,0-18.664,0c0,11.853,0,23.16,0,34.889c-11.736,0-22.917,0-34.378,0
	c0,8.61,0.08,16.784-0.053,24.955c-0.036,2.2,1.599,5.548-2.534,5.912c-3.08,0.271-6.203,0.053-9.322,0.053
	c-0.164-1.214-0.321-1.828-0.32-2.441c0.024-18.995,0.14-37.991-0.005-56.985c-0.016-2.137-1.492-4.264-2.291-6.395
	c-0.598,0.076-1.195,0.153-1.793,0.229c0.523-1.972,1.046-3.943,1.607-6.057c-1.125-0.266-2.552-0.603-3.132-0.74
	c-1.134-3-2.147-5.25-2.816-7.597c-0.454-1.593-1.219-4.168-0.485-4.858c5.453-5.129-0.263-7.019-2.794-9.077
	c-4.698-3.82-7.002,1.735-10.111,3.605c-0.466,0.28,0.693,3.019,0.852,4.644c0.185,1.898,0.462,3.907,0.04,5.714
	c-0.583,2.501-1.781,4.858-2.925,7.818c-0.615,0.096-1.953,0.304-2.764,0.43c0.399,2.422,0.766,4.65,1.157,7.03
	c-2.073,0.231-3.423,0.381-5.38,0.598c0,21.241,0,42.231,0,63.796c-5.72,0-11.13,0-16.476,0v-37.47h-16.305
	c0.031-16.692,0.062-33.384,0.061-50.076c0-1.189-0.209-3.252-0.77-3.421c-3.17-0.957-2.228-3.406-2.243-5.405
	c-0.068-8.855-0.03-17.711-0.03-26.503c-1.701-0.433-3.045-0.776-4.46-1.136c-0.137-2.49-0.266-4.825-0.406-7.37
	c-1.555-0.173-2.923-0.326-4.493-0.501c-1.192-4.89-2.36-9.681-3.558-14.598c-1.482,0.927-2.568,1.607-3.752,2.348
	c-1.829-7.483-3.561-14.569-5.399-22.091c-0.899,1.427-1.448,2.3-2.073,3.293c-1.291-2.045-2.405-3.81-3.647-5.778
	c-1.124,2.286-2.001,4.072-3.108,6.323c-0.833-2.1-1.448-3.65-2.233-5.629c-1.006,1.396-1.748,2.428-2.667,3.703
	c-1.196-1.908-2.162-3.449-3.462-5.524c-3.071,8.633-5.924,16.653-8.8,24.738c-1.317-0.659-2.108-1.055-2.676-1.339
	c-2.626,7.646-5.181,15.088-7.792,22.69c-1.236,0.255-2.704,0.557-4.557,0.939c0,10.482,0,20.714,0,31.012
	c-2.274,0.293-4.106,0.529-6.297,0.811c0,17.86,0,35.672,0,53.514h-7.686c0-13.618,0-27.249,0-40.971c-2.55,0-4.573,0.06-6.59-0.019
	c-1.544-0.061-4.39-0.159-4.423-0.475c-0.475-4.538-4.44-2.458-6.547-3.451c-0.331-1.686-0.619-3.149-0.714-3.635
	c-5.116-1.403-9.55-2.375-13.814-3.841c-7.463-2.567-14.757-5.64-22.265-8.058c-2.262-0.728-5.207-0.599-7.479,0.184
	c-10.934,3.769-20.754,10.744-32.846,11.007c-0.204,1.624-0.374,2.981-0.536,4.275c-2.593,0.329-6.622,0.089-6.904,1.004
	c-1.39,4.506-4.727,2.74-7.368,2.967c-2.449,0.211-4.931,0.045-7.851,0.045c0,13.811,0,27.384,0,40.968h-11.988
	c-0.005-0.137-0.006-0.274-0.011-0.412c-0.059-1.529-1.173-3.959-2.341-4.345c-5.738-1.896-7.216-5.727-6.49-11.266
	c0.367-2.804-0.328-5.762,0.145-8.533c1.014-5.947-1.396-9.277-7.074-10.51c-3.237-0.703-4.096-2.63-3.965-5.824
	c0.254-6.168,0.234-12.362-0.043-18.528c-0.067-1.485-1.375-3.97-2.468-4.185c-8.089-1.588-10.181-6.606-8.868-13.997
	c0.191-1.075,0.026-2.213,0.028-3.322c0.013-7.87,0.011-7.864-7.467-9.697c-1.84-0.451-3.718-0.817-5.492-1.46
	c-11.382-4.129-22.717-4.198-34.153-0.106c-4.266,1.527-10.39,1.233-12.625,4.122c-2.262,2.923-1.284,8.817-0.777,13.302
	c0.665,5.888-1.203,9.253-7.124,10.325c-3.597,0.651-4.55,2.998-4.372,6.552c0.301,6.005,0.216,12.042-0.012,18.054
	c-0.053,1.409-1.139,3.832-2.063,3.992c-8.812,1.534-9.556,7.484-8.685,14.66c0.303,2.498-0.234,5.104,0.113,7.59
	c0.574,4.107-0.9,6.694-4.853,7.784c-3.385,0.933-4.14,3.176-3.971,6.429c0.246,4.74-0.33,9.545,0.175,14.244
	c0.523,4.861-1.115,8.542-5.081,10.715c-2.365,1.296-5.509,1.545-8.269,1.431c-0.558-0.023-1.376-3.794-1.376-5.838
	c0.006-63.053,0.133-126.106,0.049-189.158c-0.003-2.365-1.91-4.733-2.952-7.09c-0.799-1.808-2.325-3.594-2.344-5.402
	c-0.18-17.109-0.056-34.221-0.169-51.331c-0.014-2.103-0.213-5.033-1.533-6.131c-3.074-2.559-3.708-5.791-2.795-8.853
	c2.91-9.755-6.42-12.492-10.048-18.456c-0.156-0.256-0.898-0.212-1.368-0.212C711.706-0.003,702.391,0,693.076,0
	c-0.942,2.551-2.258,4.303-3.952,5.533c-2.887,2.097-4.772,4.498-4.554,8.278c0.155,2.684,0.162,5.396-0.049,8.073
	c-0.082,1.035-0.702,2.565-1.497,2.914c-4.085,1.794-4.667,5.079-4.648,8.987c0.083,16.952,0.077,33.905-0.019,50.857
	c-0.009,1.531-0.601,4.198-1.409,4.4c-5.559,1.395-5.804,5.393-5.797,9.945c0.086,60.996,0.118,121.992,0.126,182.987
	c0,2.789-0.351,5.578-0.55,8.547c-3.444,0-6.386,0-10.059,0c0-31.266,0-62.339,0-93.462c-2.883-0.266-5.047-0.465-7.751-0.714
	c0-5.816,0-11.438,0-17.173c-2.697-0.2-4.838-0.359-7.466-0.554c0-6.387,0-12.48,0-19.101c-6.759,1.888-10.117-1.023-12.237-6.695
	c-1.631-4.364-4.069-8.427-6.552-13.439c-2.596,5.201-4.818,9.682-7.068,14.15c-1.812,3.599-2.877,8.174-9.159,5.99
	c0,6.887,0,12.981,0,19.121c-2.509,0.208-4.49,0.373-7.012,0.582c0,5.86,0,11.464,0,17.173c-2.71,0.217-4.864,0.39-7.512,0.603
	c0,42.107,0,84.013,0,126.184c-3.446,0-6.378,0-9.825,0c0-26.165,0-52.224,0-78.833c-6.753,0-13.01,0-19.318,0
	c-0.211-2.556-0.377-4.562-0.56-6.783c-12.007,0-23.774,0-35.632,0c-0.243,2.323-0.452,4.328-0.68,6.514
	c-2.33,0.21-4.449,0.402-6.948,0.627c0,11.814,0,23.319,0,34.947c-2.194,0-3.962,0-5.685,0c-0.266-2.385-0.488-4.376-0.697-6.257
	c-7.63,0-14.857,0-22.165,0c-0.257,2.28-0.481,4.266-0.718,6.373c-2.433,0.228-4.568,0.428-7.196,0.674c0,4.376,0,8.403,0,12.378
	c-4.275,0-8.013,0-12.215,0c0-8.442,0-16.605,0-25.543c-8.807,0-17.152,0-25.498,0h-28.868v15.499h-14.434v20.678h-43.028v22.683
	H93.142v32.908H0v55.591h93.142h269.305h43.028h14.434h14.434h14.434c19.815,0,39.63,0,59.445,0c304.267,0,608.533,0,912.806,0
	c0-36.876,0-73.08,0-109.324C1413.835,305.32,1406.95,305.32,1399.425,305.32z"/>
</svg>
