<?xml version="1.0" encoding="iso-8859-1"?>
<!-- Generator: Adobe Illustrator 19.1.0, SVG Export Plug-In . SVG Version: 6.00 Build 0)  -->
<svg version="1.1" id="Layer_1" xmlns="http://www.w3.org/2000/svg" xmlns:xlink="http://www.w3.org/1999/xlink" x="0px" y="0px"
	 viewBox="0 0 267.488 64.523" style="enable-background:new 0 0 267.488 64.523;" xml:space="preserve">
<path style="fill:#E6E7E8;" d="M12.797,64.523h238.167c0.087,0,3.423-0.23,3.507-0.25c1.435-0.33,13.623-3.328,12.993-11.022
	c-0.602-7.357-8.282-9.599-14.676-9.963c-1.069-0.061-1.921-0.855-1.951-1.86c-0.105-3.603-1.343-11.347-10.04-11.347
	c-5.78,0-8.613,1.466-10,2.903c-0.609,0.63-1.704,0.371-1.896-0.461c-1.371-5.942-5.837-18.097-19.437-18.097
	c-18,0-19.472,16.625-23.23,15.258c-4.395-1.599-6.77-30.288-26.77-29.662c-13.526,0.424-20.649,10.013-23.843,16.177
	c-0.974,1.88-3.764,2.023-4.929,0.242c-4.025-6.155-12.435-16.004-25.228-16.427C92.575-0.413,85.407,9.308,82.205,15.366
	c-0.873,1.652-3.324,1.755-4.392,0.208c-2.888-4.185-8.804-9.335-19.539-6.111C48.39,12.432,46.45,20.908,46.338,26.646
	c-0.03,1.563-1.918,2.428-3.252,1.495c-2.429-1.699-6.18-3.02-11.622-1.817c-7.286,1.61-9.337,7.103-9.872,10.82
	c-0.249,1.73-1.945,2.959-3.772,2.638c-4.745-0.835-12.915-0.84-17.023,7.52C-1.506,51.991,0.797,64.523,12.797,64.523z"/>
</svg>
